<?xml version="1.0" encoding="UTF-8" standalone="no"?>
<!-- Generator: Adobe Illustrator 19.0.0, SVG Export Plug-In . SVG Version: 6.00 Build 0)  -->

<svg
   xmlns:dc="http://purl.org/dc/elements/1.1/"
   xmlns:cc="http://creativecommons.org/ns#"
   xmlns:rdf="http://www.w3.org/1999/02/22-rdf-syntax-ns#"
   xmlns:svg="http://www.w3.org/2000/svg"
   xmlns="http://www.w3.org/2000/svg"
   xmlns:sodipodi="http://sodipodi.sourceforge.net/DTD/sodipodi-0.dtd"
   xmlns:inkscape="http://www.inkscape.org/namespaces/inkscape"
   version="1.1"
   id="Layer_1"
   x="0px"
   y="0px"
   viewBox="0 0 512 512"
   style="enable-background:new 0 0 512 512;"
   xml:space="preserve"
   sodipodi:docname="casino.svg"
   inkscape:version="0.92.3 (2405546, 2018-03-11)"><metadata
   id="metadata230"><rdf:RDF><cc:Work
       rdf:about=""><dc:format>image/svg+xml</dc:format><dc:type
         rdf:resource="http://purl.org/dc/dcmitype/StillImage" /></cc:Work></rdf:RDF></metadata><defs
   id="defs228" /><sodipodi:namedview
   pagecolor="#ffffff"
   bordercolor="#fff"
   borderopacity="1"
   objecttolerance="10"
   gridtolerance="10"
   guidetolerance="10"
   inkscape:pageopacity="0"
   inkscape:pageshadow="2"
   inkscape:window-width="1366"
   inkscape:window-height="705"
   id="namedview226"
   showgrid="false"
   inkscape:zoom="0.37012621"
   inkscape:cx="257.48206"
   inkscape:cy="301.83153"
   inkscape:window-x="-8"
   inkscape:window-y="-8"
   inkscape:window-maximized="1"
   inkscape:current-layer="Layer_1" />



<g
   id="g354"
   transform="translate(-764.60406,-55.38652)"><rect
     id="rect121"
     height="132.086"
     width="18.48"
     style="fill:#d8b26b"
     y="311.44666"
     x="584.20593" /><g
     transform="translate(-0.95522388,325.73134)"
     id="g316"><ellipse
       style="fill:#e02424"
       cx="593.71448"
       cy="135.71864"
       rx="29.763"
       ry="29.704"
       id="ellipse123" /><path
       style="opacity:0.1;enable-background:new"
       d="m 586.52649,135.71864 c 0,-12.418 7.637,-23.049 18.477,-27.487 -3.482,-1.425 -7.29,-2.217 -11.286,-2.217 -16.437,0 -29.763,13.299 -29.763,29.704 0,16.406 13.326,29.704 29.763,29.704 3.996,0 7.804,-0.791 11.286,-2.216 -10.839,-4.438 -18.477,-15.07 -18.477,-27.488 z"
       id="path125"
       inkscape:connector-curvature="0" /></g><path
     inkscape:connector-curvature="0"
     id="path127"
     d="m 602.68591,311.44667 c 0,2.964 -2.428,5.39 -5.396,5.39 h -57.552 c -2.967,0 -5.396,-2.425 -5.396,-5.39 v -33.228 c 0,-2.964 2.427,-5.39 5.396,-5.39 h 57.552 c 2.967,0 5.396,2.425 5.396,5.39 z"
     style="fill:#e02424" /></g>




























<g
   id="g504"><path
     id="path129"
     d="M427.588,308.581v-33.228c0-2.964,2.428-5.39,5.396-5.39H399.32  c-2.967,0-5.396,2.425-5.396,5.39v33.228c0,2.964,2.427,5.39,5.396,5.39h33.663C430.016,313.971,427.588,311.546,427.588,308.581z"
     style="opacity:0.1;enable-background:new    ;" /><path
     id="path131"
     d="M405.905,339.387c0,2.964-2.428,5.389-5.396,5.389h-21.99c-2.967,0-5.396-2.424-5.396-5.389v-94.838  c0-2.963,2.428-5.389,5.396-5.389h21.99c2.967,0,5.396,2.425,5.396,5.389V339.387z"
     style="fill:#0853A4;" /><path
     id="path133"
     d="M340.237,95.846C329.341,41.195,281.026,0,223.066,0c-57.962,0-106.277,41.195-117.172,95.846  H340.237z"
     style="fill:#E02424;" /><path
     id="path135"
     d="M312.105,95.846c-10.396-39.375-46.368-68.497-89.039-68.497s-78.645,29.122-89.04,68.497H312.105z"
     style="fill:#D8B26B;" /><path
     id="path137"
     d="M283.986,95.846c-9.441-24.403-33.18-41.767-60.921-41.767s-51.48,17.363-60.922,41.767H283.986z"
     style="fill:#0853A4;" /><rect
     id="rect139"
     height="127.478"
     width="324.086"
     style="fill:#D8B26B;"
     y="358.4"
     x="61.024" /><path
     id="path141"
     d="M71.816,406.384c-5.935,0-10.792-4.85-10.792-10.778v90.272h21.112v-79.494  H71.816z"
     style="opacity:0.1;enable-background:new    ;" /><path
     id="path143"
     d="M49.62,479.249c-2.968,0-5.396,2.424-5.396,5.389v10.97c0,2.964,2.428,5.39,5.396,5.39h346.889  c2.967,0,5.396-2.425,5.396-5.39v-10.97c0-2.964-2.428-5.389-5.396-5.389H49.62z"
     style="fill:#A86D33;" /><g
     id="g149">
	<path
   id="path145"
   d="M61.024,358.4v37.205c0,5.929,4.857,10.778,10.792,10.778h302.498   c5.935,0,10.792-4.85,10.792-10.778V358.4H61.024z"
   style="fill:#D1943D;" />
	<path
   id="path147"
   d="M385.105,206.89V95.461c0-5.929-4.856-10.779-10.792-10.779H71.816   c-5.935,0-10.792,4.851-10.792,10.779V206.89H385.105z"
   style="fill:#D1943D;" />
</g><path
     id="path151"
     d="M93.341,84.682H71.816c-5.935,0-10.792,4.851-10.792,10.779V206.89h21.525  V95.461C82.549,89.533,87.406,84.682,93.341,84.682z"
     style="opacity:0.1;enable-background:new    ;" /><path
     id="path153"
     d="M110.154,171.209c-0.864,0-1.621-0.584-1.839-1.42c-1.685-6.432-6.727-11.509-13.156-13.248  c-0.829-0.225-1.405-0.978-1.405-1.836v-30.998c0-0.859,0.577-1.612,1.406-1.837c6.24-1.685,11.234-6.579,13.034-12.769  c0.236-0.811,0.98-1.371,1.826-1.371h225.349c0.846,0,1.59,0.559,1.826,1.371c1.881,6.467,7.134,11.428,13.709,12.944  c0.863,0.199,1.475,0.968,1.475,1.853v30.616c0,0.886-0.612,1.654-1.475,1.854c-6.772,1.561-12.072,6.704-13.831,13.421  c-0.218,0.837-0.975,1.42-1.839,1.42h-225.08V171.209z"
     style="fill:#0853A4;" /><path
     id="path155"
     d="M71.816,377.654c-5.935,0-10.792-4.851-10.792-10.779V206.907c0-5.929,4.857-10.778,10.792-10.778  h302.498c5.935,0,10.792,4.85,10.792,10.778v159.968c0,5.929-4.856,10.779-10.792,10.779H71.816V377.654z"
     style="fill:#D8B26B;" /><rect
     id="rect157"
     height="101.04094"
     width="269.23901"
     style="fill:#ffffff;stroke-width:0.86375952"
     y="225.17799"
     x="88.442001" /><rect
     id="rect159"
     height="101.04094"
     width="17.434999"
     style="opacity:0.1;stroke-width:0.86375952;enable-background:new"
     y="225.17799"
     x="88.442001" /><path
     id="path161"
     d="M302.916,495.609c0,2.964-2.428,5.39-5.396,5.39H148.61c-2.968,0-5.396-2.425-5.396-5.39V448.08  c0-2.963,2.428-5.389,5.396-5.389h148.91c2.967,0,5.396,2.425,5.396,5.389V495.609z"
     style="fill:#5B330A;" /><path
     id="path163"
     d="M165.367,495.609V448.08c0-2.963,2.428-5.389,5.396-5.389h-22.152  c-2.968,0-5.396,2.425-5.396,5.389v47.528c0,2.964,2.428,5.39,5.396,5.39h22.152C167.795,500.998,165.367,498.572,165.367,495.609z"
     style="opacity:0.1;enable-background:new    ;" /><path
     id="path165"
     d="M320.786,506.61c0,2.964-2.428,5.39-5.396,5.39h-41.017c-2.967,0-5.396-2.425-5.396-5.39v-12.324  c0-2.964,2.428-5.39,5.396-5.39h41.017c2.967,0,5.396,2.425,5.396,5.39V506.61z"
     style="fill:#FEBE2D;" /><path
     id="path167"
     d="M238.498,486.757c0,2.964-2.428,5.39-5.396,5.39h-41.017c-2.968,0-5.396-2.425-5.396-5.39v-12.324  c0-2.965,2.428-5.39,5.396-5.39h41.017c2.967,0,5.396,2.424,5.396,5.39V486.757z"
     style="fill:#FEE12D;" /><ellipse
     id="ellipse169"
     ry="12.654"
     rx="12.675"
     cy="139.598"
     cx="133.78"
     style="fill:#FFFFFF;" /><ellipse
     id="ellipse171"
     ry="12.654"
     rx="12.675"
     cy="139.598"
     cx="193.298"
     style="fill:#FEE12D;" /><ellipse
     id="ellipse173"
     ry="12.654"
     rx="12.675"
     cy="139.598"
     cx="252.826"
     style="fill:#FFFFFF;" /><ellipse
     id="ellipse175"
     ry="12.654"
     rx="12.675"
     cy="139.598"
     cx="312.353"
     style="fill:#FEE12D;" /><ellipse
     id="ellipse177"
     ry="14.303"
     rx="14.33"
     cy="441.595"
     cx="345.424"
     style="fill:#0853A4;" /><g
     transform="translate(2.8656712,-11.462687)"
     id="g183">
	<ellipse
   id="ellipse179"
   ry="14.303"
   rx="14.33"
   cy="441.595"
   cx="102.914"
   style="fill:#e02424" />
	<path
   inkscape:connector-curvature="0"
   id="path181"
   d="m 146.053,308.894 c -0.564,0 -1.115,-0.112 -1.634,-0.329 l -9.895,-4.145 c -0.195,-0.085 -0.402,-0.126 -0.61,-0.126 -0.208,0 -0.417,0.042 -0.612,0.126 l -9.893,4.145 c -0.521,0.217 -1.067,0.329 -1.634,0.329 -0.899,0 -1.758,-0.278 -2.483,-0.804 -1.188,-0.86 -1.849,-2.298 -1.728,-3.753 l 0.903,-10.651 c 0.039,-0.425 -0.099,-0.844 -0.379,-1.164 l -7.015,-8.089 c -0.957,-1.108 -1.273,-2.655 -0.821,-4.045 0.456,-1.391 1.626,-2.463 3.055,-2.795 l 10.45,-2.438 c 0.414,-0.095 0.77,-0.354 0.99,-0.717 l 5.554,-9.146 c 0.761,-1.251 2.144,-2.028 3.615,-2.028 1.469,0 2.853,0.777 3.613,2.028 l 5.555,9.146 c 0.216,0.363 0.576,0.622 0.987,0.717 l 10.452,2.438 c 1.429,0.331 2.598,1.404 3.056,2.796 0.453,1.389 0.136,2.937 -0.823,4.044 l -7.015,8.089 c -0.276,0.321 -0.416,0.739 -0.376,1.164 l 0.898,10.651 c 0.127,1.456 -0.536,2.892 -1.724,3.753 -0.73,0.526 -1.585,0.804 -2.486,0.804 z"
   style="fill:#e02424" />
</g><path
     inkscape:connector-curvature="0"
     id="path185"
     d="m 242.8148,296.47609 c -0.564,0 -1.115,-0.112 -1.634,-0.329 l -9.894,-4.145 c -0.196,-0.085 -0.402,-0.126 -0.611,-0.126 -0.208,0 -0.417,0.042 -0.612,0.126 l -9.893,4.145 c -0.519,0.217 -1.067,0.329 -1.634,0.329 -0.899,0 -1.758,-0.278 -2.483,-0.804 -1.188,-0.86 -1.849,-2.298 -1.728,-3.753 l 0.903,-10.651 c 0.038,-0.425 -0.099,-0.844 -0.379,-1.164 l -7.015,-8.089 c -0.958,-1.108 -1.272,-2.655 -0.82,-4.045 0.456,-1.391 1.626,-2.463 3.055,-2.795 l 10.449,-2.438 c 0.414,-0.095 0.77,-0.354 0.99,-0.717 l 5.553,-9.146 c 0.761,-1.251 2.145,-2.028 3.615,-2.028 1.469,0 2.852,0.777 3.614,2.028 l 5.554,9.146 c 0.217,0.363 0.576,0.622 0.988,0.717 l 10.451,2.438 c 1.429,0.331 2.599,1.404 3.056,2.796 0.455,1.389 0.137,2.937 -0.823,4.044 l -7.014,8.089 c -0.276,0.321 -0.416,0.739 -0.377,1.164 l 0.898,10.651 c 0.127,1.456 -0.536,2.892 -1.723,3.753 -0.728,0.526 -1.584,0.804 -2.486,0.804 z"
     style="fill:#0853a4" /><path
     inkscape:connector-curvature="0"
     id="path187"
     d="m 335.08601,298.38653 c -0.564,0 -1.115,-0.112 -1.633,-0.329 l -9.894,-4.145 c -0.196,-0.085 -0.402,-0.126 -0.611,-0.126 -0.208,0 -0.418,0.042 -0.612,0.126 l -9.893,4.145 c -0.52,0.217 -1.067,0.329 -1.634,0.329 -0.899,0 -1.759,-0.278 -2.483,-0.804 -1.188,-0.86 -1.849,-2.298 -1.728,-3.753 l 0.903,-10.651 c 0.038,-0.425 -0.099,-0.844 -0.379,-1.164 l -7.015,-8.089 c -0.958,-1.108 -1.273,-2.655 -0.821,-4.045 0.457,-1.391 1.626,-2.463 3.055,-2.795 l 10.45,-2.438 c 0.413,-0.095 0.77,-0.354 0.99,-0.717 l 5.554,-9.146 c 0.761,-1.251 2.145,-2.028 3.616,-2.028 1.469,0 2.852,0.777 3.613,2.028 l 5.555,9.146 c 0.216,0.363 0.576,0.622 0.988,0.717 l 10.451,2.438 c 1.429,0.331 2.599,1.404 3.056,2.796 0.455,1.389 0.137,2.937 -0.823,4.044 l -7.014,8.089 c -0.277,0.321 -0.416,0.739 -0.377,1.164 l 0.898,10.651 c 0.128,1.456 -0.536,2.892 -1.723,3.753 -0.732,0.526 -1.587,0.804 -2.489,0.804 z"
     style="fill:#e02424" /><path
     id="path189"
     d="M210.94,506.61c0,2.964-2.428,5.39-5.396,5.39h-41.017c-2.968,0-5.396-2.425-5.396-5.39v-12.324  c0-2.964,2.428-5.39,5.396-5.39h41.017c2.967,0,5.396,2.425,5.396,5.39V506.61z"
     style="fill:#D8B26B;" /><path
     id="path191"
     d="M256.611,506.61c0,2.964-2.428,5.39-5.396,5.39h-41.016c-2.967,0-5.396-2.425-5.396-5.39v-12.324  c0-2.964,2.428-5.39,5.396-5.39h41.016c2.967,0,5.396,2.425,5.396,5.39V506.61z"
     style="fill:#FEBE2D;" /><path
     inkscape:connector-curvature="0"
     id="path193"
     d="M 369.141,209.50499 H 98.039999 c -4.328,0 -7.837,3.08065 -7.837,6.8823 v 117.07015 c 0,3.80164 3.509,6.8823 7.837,6.8823 H 369.141 c 4.328,0 7.837,-3.08066 7.837,-6.8823 V 216.38729 c 0,-3.80077 -3.509,-6.8823 -7.837,-6.8823 z M 105.877,223.2687 h 74.515 v 103.30645 h -74.515 z m 90.188,0 h 75.05 v 103.30645 h -75.05 z M 361.304,326.57515 H 286.79 V 223.2687 h 74.515 z"
     style="fill:#a86d33;stroke-width:0.93711251" /></g>
<g
   id="g195">
</g>
<g
   id="g197">
</g>
<g
   id="g199">
</g>
<g
   id="g201">
</g>
<g
   id="g203">
</g>
<g
   id="g205">
</g>
<g
   id="g207">
</g>
<g
   id="g209">
</g>
<g
   id="g211">
</g>
<g
   id="g213">
</g>
<g
   id="g215">
</g>
<g
   id="g217">
</g>
<g
   id="g219">
</g>
<g
   id="g221">
</g>
<g
   id="g223">
</g>
<g
   id="g393"
   transform="translate(-240.45852,108.07125)"><rect
     x="1326.6864"
     y="-38.063019"
     style="fill:#d8b26b"
     width="18.48"
     height="132.086"
     id="rect232" /><ellipse
     style="fill:#e02424"
     cx="1335.9235"
     cy="-50.550018"
     rx="29.763"
     ry="29.704"
     id="ellipse234" /><path
     inkscape:connector-curvature="0"
     style="opacity:0.1;enable-background:new"
     d="m 1328.7354,-50.550015 c 0,-12.418 7.637,-23.049 18.477,-27.487 -3.482,-1.425 -7.29,-2.217 -11.286,-2.217 -16.437,0 -29.763,13.299 -29.763,29.704 0,16.406 13.326,29.704 29.763,29.704 3.996,0 7.804,-0.791 11.286,-2.216 -10.839,-4.438 -18.477,-15.07 -18.477,-27.488 z"
     id="path236" /><path
     inkscape:connector-curvature="0"
     style="fill:#e02424"
     d="m 1360.1784,107.98399 c 0,2.964 -2.428,5.39 -5.396,5.39 h -57.552 c -2.967,0 -5.396,-2.425 -5.396,-5.39 V 74.755985 c 0,-2.964 2.427,-5.39 5.396,-5.39 h 57.552 c 2.967,0 5.396,2.425 5.396,5.39 z"
     id="path238" /><path
     inkscape:connector-curvature="0"
     style="opacity:0.1;enable-background:new"
     d="M 1325.4984,107.98399 V 74.755985 c 0,-2.964 2.428,-5.39 5.396,-5.39 h -33.664 c -2.967,0 -5.396,2.425 -5.396,5.39 v 33.228005 c 0,2.964 2.427,5.39 5.396,5.39 h 33.663 c -2.967,0 -5.395,-2.425 -5.395,-5.39 z"
     id="path240" /><path
     inkscape:connector-curvature="0"
     style="fill:#0853a4"
     d="m 1303.8154,138.78999 c 0,2.964 -2.428,5.389 -5.396,5.389 h -21.99 c -2.967,0 -5.396,-2.424 -5.396,-5.389 V 43.951985 c 0,-2.963 2.428,-5.389 5.396,-5.389 h 21.99 c 2.967,0 5.396,2.425 5.396,5.389 z"
     id="path242" /><path
     inkscape:connector-curvature="0"
     style="fill:#e02424"
     d="m 1238.1474,-104.75101 c -10.896,-54.651 -59.211,-95.846 -117.171,-95.846 -57.962,0 -106.277,41.195 -117.172,95.846 z"
     id="path244" /><path
     inkscape:connector-curvature="0"
     style="fill:#d8b26b"
     d="m 1210.0154,-104.75101 c -10.396,-39.375 -46.368,-68.497 -89.039,-68.497 -42.671,0 -78.645,29.122 -89.04,68.497 z"
     id="path246" /><path
     inkscape:connector-curvature="0"
     style="fill:#0853a4"
     d="m 1181.8964,-104.75101 c -9.441,-24.403 -33.18,-41.767 -60.921,-41.767 -27.741,0 -51.48,17.363 -60.922,41.767 z"
     id="path248" /><rect
     x="958.93445"
     y="157.80298"
     style="fill:#d8b26b"
     width="324.086"
     height="127.478"
     id="rect250" /><path
     inkscape:connector-curvature="0"
     style="opacity:0.1;enable-background:new"
     d="m 969.72645,205.78699 c -5.935,0 -10.792,-4.85 -10.792,-10.778 v 90.272 h 21.112 v -79.494 z"
     id="path252" /><path
     inkscape:connector-curvature="0"
     style="fill:#a86d33"
     d="m 947.53045,278.65199 c -2.968,0 -5.396,2.424 -5.396,5.389 v 10.97 c 0,2.964 2.428,5.39 5.396,5.39 h 346.88895 c 2.967,0 5.396,-2.425 5.396,-5.39 v -10.97 c 0,-2.964 -2.428,-5.389 -5.396,-5.389 z"
     id="path254" /><g
     transform="translate(897.91045,-200.59701)"
     id="g260">
	<path
   inkscape:connector-curvature="0"
   style="fill:#d1943d"
   d="m 61.024,358.4 v 37.205 c 0,5.929 4.857,10.778 10.792,10.778 h 302.498 c 5.935,0 10.792,-4.85 10.792,-10.778 V 358.4 Z"
   id="path256" />
	<path
   inkscape:connector-curvature="0"
   style="fill:#d1943d"
   d="M 385.105,206.89 V 95.461 c 0,-5.929 -4.856,-10.779 -10.792,-10.779 H 71.816 c -5.935,0 -10.792,4.851 -10.792,10.779 V 206.89 Z"
   id="path258" />
</g><path
     inkscape:connector-curvature="0"
     style="opacity:0.1;enable-background:new"
     d="m 991.25145,-115.91501 h -21.525 c -5.935,0 -10.792,4.851 -10.792,10.779 V 6.2929852 h 21.525 V -105.13601 c 0,-5.928 4.857,-10.779 10.792,-10.779 z"
     id="path262" /><path
     inkscape:connector-curvature="0"
     style="fill:#0853a4"
     d="m 1008.0644,-29.388015 c -0.864,0 -1.621,-0.584 -1.839,-1.42 -1.685,-6.432 -6.72695,-11.509 -13.15595,-13.248 -0.829,-0.225 -1.405,-0.978 -1.405,-1.836 v -30.998 c 0,-0.859 0.577,-1.612 1.406,-1.837 6.24,-1.685 11.23395,-6.579 13.03395,-12.769 0.236,-0.811 0.98,-1.371 1.826,-1.371 h 225.349 c 0.846,0 1.59,0.559 1.826,1.371 1.881,6.467 7.134,11.428 13.709,12.944 0.863,0.199 1.475,0.968 1.475,1.853 v 30.616 c 0,0.886 -0.612,1.654 -1.475,1.854 -6.772,1.561 -12.072,6.704 -13.831,13.421 -0.218,0.837 -0.975,1.42 -1.839,1.42 h -225.08 z"
     id="path264" /><path
     inkscape:connector-curvature="0"
     style="fill:#d8b26b"
     d="m 969.72645,177.05699 c -5.935,0 -10.792,-4.851 -10.792,-10.779 V 6.3099852 c 0,-5.92900002 4.857,-10.778 10.792,-10.778 h 302.49795 c 5.935,0 10.792,4.84999998 10.792,10.778 V 166.27799 c 0,5.929 -4.856,10.779 -10.792,10.779 z"
     id="path266" /><rect
     x="986.35248"
     y="18.580978"
     style="fill:#ffffff"
     width="269.23901"
     height="135.429"
     id="rect268" /><rect
     x="986.35248"
     y="18.580978"
     style="opacity:0.1;enable-background:new"
     width="17.434999"
     height="135.429"
     id="rect270" /><path
     inkscape:connector-curvature="0"
     style="fill:#5b330a"
     d="m 1200.8264,295.01199 c 0,2.964 -2.428,5.39 -5.396,5.39 h -148.91 c -2.968,0 -5.396,-2.425 -5.396,-5.39 v -47.529 c 0,-2.963 2.428,-5.389 5.396,-5.389 h 148.91 c 2.967,0 5.396,2.425 5.396,5.389 z"
     id="path272" /><path
     inkscape:connector-curvature="0"
     style="opacity:0.1;enable-background:new"
     d="m 1063.2774,295.01199 v -47.529 c 0,-2.963 2.428,-5.389 5.396,-5.389 h -22.152 c -2.968,0 -5.396,2.425 -5.396,5.389 v 47.528 c 0,2.964 2.428,5.39 5.396,5.39 h 22.152 c -2.968,0 -5.396,-2.426 -5.396,-5.389 z"
     id="path274" /><path
     inkscape:connector-curvature="0"
     style="fill:#febe2d"
     d="m 1218.6964,306.01299 c 0,2.964 -2.428,5.39 -5.396,5.39 h -41.017 c -2.967,0 -5.396,-2.425 -5.396,-5.39 v -12.324 c 0,-2.964 2.428,-5.39 5.396,-5.39 h 41.017 c 2.967,0 5.396,2.425 5.396,5.39 z"
     id="path276" /><path
     inkscape:connector-curvature="0"
     style="fill:#fee12d"
     d="m 1136.4084,286.15999 c 0,2.964 -2.428,5.39 -5.396,5.39 h -41.017 c -2.968,0 -5.396,-2.425 -5.396,-5.39 v -12.324 c 0,-2.965 2.428,-5.39 5.396,-5.39 h 41.017 c 2.967,0 5.396,2.424 5.396,5.39 z"
     id="path278" /><ellipse
     style="fill:#ffffff"
     cx="1031.6904"
     cy="-60.999008"
     rx="12.675"
     ry="12.654"
     id="ellipse280" /><ellipse
     style="fill:#fee12d"
     cx="1091.2085"
     cy="-60.999008"
     rx="12.675"
     ry="12.654"
     id="ellipse282" /><ellipse
     style="fill:#ffffff"
     cx="1150.7365"
     cy="-60.999008"
     rx="12.675"
     ry="12.654"
     id="ellipse284" /><ellipse
     style="fill:#fee12d"
     cx="1210.2634"
     cy="-60.999008"
     rx="12.675"
     ry="12.654"
     id="ellipse286" /><ellipse
     style="fill:#0853a4"
     cx="1243.3345"
     cy="240.99799"
     rx="14.33"
     ry="14.303"
     id="ellipse288" /><g
     transform="translate(897.91045,-200.59701)"
     id="g294">
	<ellipse
   style="fill:#e02424"
   cx="102.914"
   cy="441.595"
   rx="14.33"
   ry="14.303"
   id="ellipse290" />
	<path
   inkscape:connector-curvature="0"
   style="fill:#e02424"
   d="m 146.053,308.894 c -0.564,0 -1.115,-0.112 -1.634,-0.329 l -9.895,-4.145 c -0.195,-0.085 -0.402,-0.126 -0.61,-0.126 -0.208,0 -0.417,0.042 -0.612,0.126 l -9.893,4.145 c -0.521,0.217 -1.067,0.329 -1.634,0.329 -0.899,0 -1.758,-0.278 -2.483,-0.804 -1.188,-0.86 -1.849,-2.298 -1.728,-3.753 l 0.903,-10.651 c 0.039,-0.425 -0.099,-0.844 -0.379,-1.164 l -7.015,-8.089 c -0.957,-1.108 -1.273,-2.655 -0.821,-4.045 0.456,-1.391 1.626,-2.463 3.055,-2.795 l 10.45,-2.438 c 0.414,-0.095 0.77,-0.354 0.99,-0.717 l 5.554,-9.146 c 0.761,-1.251 2.144,-2.028 3.615,-2.028 1.469,0 2.853,0.777 3.613,2.028 l 5.555,9.146 c 0.216,0.363 0.576,0.622 0.987,0.717 l 10.452,2.438 c 1.429,0.331 2.598,1.404 3.056,2.796 0.453,1.389 0.136,2.937 -0.823,4.044 l -7.015,8.089 c -0.276,0.321 -0.416,0.739 -0.376,1.164 l 0.898,10.651 c 0.127,1.456 -0.536,2.892 -1.724,3.753 -0.73,0.526 -1.585,0.804 -2.486,0.804 z"
   id="path292" />
</g><path
     inkscape:connector-curvature="0"
     style="fill:#0853a4"
     d="m 1133.0834,108.29699 c -0.564,0 -1.115,-0.112 -1.634,-0.329 l -9.894,-4.145 c -0.196,-0.085 -0.402,-0.126 -0.611,-0.126 -0.208,0 -0.417,0.042 -0.612,0.126 l -9.893,4.145 c -0.519,0.217 -1.067,0.329 -1.634,0.329 -0.899,0 -1.758,-0.278 -2.483,-0.804 -1.188,-0.86 -1.849,-2.298 -1.728,-3.753 l 0.903,-10.651005 c 0.038,-0.425 -0.099,-0.844 -0.379,-1.164 l -7.015,-8.089 c -0.958,-1.108 -1.272,-2.655 -0.82,-4.045 0.456,-1.391 1.626,-2.463 3.055,-2.795 l 10.449,-2.438 c 0.414,-0.095 0.77,-0.354 0.99,-0.717 l 5.553,-9.146 c 0.761,-1.251 2.145,-2.028 3.615,-2.028 1.469,0 2.852,0.777 3.614,2.028 l 5.554,9.146 c 0.217,0.363 0.576,0.622 0.988,0.717 l 10.451,2.438 c 1.429,0.331 2.599,1.404 3.056,2.796 0.455,1.389 0.137,2.937 -0.823,4.044 l -7.014,8.089 c -0.276,0.321 -0.416,0.739 -0.377,1.164 l 0.898,10.651005 c 0.127,1.456 -0.536,2.892 -1.723,3.753 -0.728,0.526 -1.584,0.804 -2.486,0.804 z"
     id="path296" /><path
     inkscape:connector-curvature="0"
     style="fill:#e02424"
     d="m 1224.3994,108.29699 c -0.564,0 -1.115,-0.112 -1.633,-0.329 l -9.894,-4.145 c -0.196,-0.085 -0.402,-0.126 -0.611,-0.126 -0.208,0 -0.418,0.042 -0.612,0.126 l -9.893,4.145 c -0.52,0.217 -1.067,0.329 -1.634,0.329 -0.899,0 -1.759,-0.278 -2.483,-0.804 -1.188,-0.86 -1.849,-2.298 -1.728,-3.753 l 0.903,-10.651005 c 0.038,-0.425 -0.099,-0.844 -0.379,-1.164 l -7.015,-8.089 c -0.958,-1.108 -1.273,-2.655 -0.821,-4.045 0.457,-1.391 1.626,-2.463 3.055,-2.795 l 10.45,-2.438 c 0.413,-0.095 0.77,-0.354 0.99,-0.717 l 5.554,-9.146 c 0.761,-1.251 2.145,-2.028 3.616,-2.028 1.469,0 2.852,0.777 3.613,2.028 l 5.555,9.146 c 0.216,0.363 0.576,0.622 0.988,0.717 l 10.451,2.438 c 1.429,0.331 2.599,1.404 3.056,2.796 0.455,1.389 0.137,2.937 -0.823,4.044 l -7.014,8.089 c -0.277,0.321 -0.416,0.739 -0.377,1.164 l 0.898,10.651005 c 0.128,1.456 -0.536,2.892 -1.723,3.753 -0.732,0.526 -1.587,0.804 -2.489,0.804 z"
     id="path298" /><path
     inkscape:connector-curvature="0"
     style="fill:#d8b26b"
     d="m 1108.8504,306.01299 c 0,2.964 -2.428,5.39 -5.396,5.39 h -41.017 c -2.968,0 -5.396,-2.425 -5.396,-5.39 v -12.324 c 0,-2.964 2.428,-5.39 5.396,-5.39 h 41.017 c 2.967,0 5.396,2.425 5.396,5.39 z"
     id="path300" /><path
     inkscape:connector-curvature="0"
     style="fill:#febe2d"
     d="m 1154.5214,306.01299 c 0,2.964 -2.428,5.39 -5.396,5.39 h -41.016 c -2.967,0 -5.396,-2.425 -5.396,-5.39 v -12.324 c 0,-2.964 2.428,-5.39 5.396,-5.39 h 41.016 c 2.967,0 5.396,2.425 5.396,5.39 z"
     id="path302" /><path
     inkscape:connector-curvature="0"
     style="fill:#a86d33"
     d="M 1257.5714,10.855985 H 986.47045 c -4.328,0 -7.837,3.508 -7.837,7.837 V 152.00299 c 0,4.329 3.509,7.837 7.837,7.837 h 271.10095 c 4.328,0 7.837,-3.508 7.837,-7.837 V 18.692985 c 0,-4.328 -3.509,-7.837 -7.837,-7.837 z m -263.26395,15.673 h 74.51495 V 144.16599 h -74.51495 z m 90.18795,0 h 75.05 V 144.16599 h -75.05 z m 165.239,117.637005 h -74.514 V 26.528985 h 74.515 z"
     id="path304" /></g><g
   id="g347"
   transform="translate(-887.53515,-193.17735)"><path
     style="fill:#e02424"
     d="m 729.73068,370.01383 c 0,2.964 -2.428,5.39 -5.396,5.39 h -57.552 c -2.967,0 -5.396,-2.425 -5.396,-5.39 v -33.228 c 0,-2.964 2.427,-5.39 5.396,-5.39 h 57.552 c 2.967,0 5.396,2.425 5.396,5.39 z"
     id="path312"
     inkscape:connector-curvature="0" /><ellipse
     style="fill:#e02424"
     cx="725.39978"
     cy="365.09207"
     rx="29.763"
     ry="29.704"
     id="ellipse308" /><path
     style="opacity:0.1;enable-background:new"
     d="m 718.21178,365.09207 c 0,-12.418 7.637,-23.049 18.477,-27.487 -3.482,-1.425 -7.29,-2.217 -11.286,-2.217 -16.437,0 -29.763,13.299 -29.763,29.704 0,16.406 13.326,29.704 29.763,29.704 3.996,0 7.804,-0.791 11.286,-2.216 -10.839,-4.438 -18.477,-15.07 -18.477,-27.488 z"
     id="path310"
     inkscape:connector-curvature="0" /></g><g
   id="g330"
   transform="translate(-891.98227,-299.97042)"><rect
     id="rect318"
     height="132.086"
     width="18.48"
     style="fill:#d8b26b"
     y="243.72803"
     x="718.2088" /><ellipse
     id="ellipse320"
     ry="29.704"
     rx="29.763"
     cy="231.24103"
     cx="727.4458"
     style="fill:#e02424" /><path
     inkscape:connector-curvature="0"
     id="path322"
     d="m 720.25783,231.24103 c 0,-12.418 7.637,-23.049 18.477,-27.487 -3.482,-1.425 -7.29,-2.217 -11.286,-2.217 -16.437,0 -29.763,13.299 -29.763,29.704 0,16.406 13.326,29.704 29.763,29.704 3.996,0 7.804,-0.791 11.286,-2.216 -10.839,-4.438 -18.477,-15.07 -18.477,-27.488 z"
     style="opacity:0.1;enable-background:new" /><path
     inkscape:connector-curvature="0"
     id="path324"
     d="m 736.41725,406.96906 c 0,2.964 -2.428,5.39 -5.396,5.39 h -57.552 c -2.967,0 -5.396,-2.425 -5.396,-5.39 v -33.228 c 0,-2.964 2.427,-5.39 5.396,-5.39 h 57.552 c 2.967,0 5.396,2.425 5.396,5.39 z"
     style="fill:#e02424" /></g><g
   id="g469"
   transform="translate(494.42595,-45.930279)"><rect
     id="rect395"
     height="132.086"
     width="18.48"
     style="fill:#d8b26b"
     y="-38.063019"
     x="1326.6864" /><ellipse
     id="ellipse397"
     ry="29.704"
     rx="29.763"
     cy="-50.550018"
     cx="1335.9235"
     style="fill:#e02424" /><path
     id="path399"
     d="m 1328.7354,-50.550015 c 0,-12.418 7.637,-23.049 18.477,-27.487 -3.482,-1.425 -7.29,-2.217 -11.286,-2.217 -16.437,0 -29.763,13.299 -29.763,29.704 0,16.406 13.326,29.704 29.763,29.704 3.996,0 7.804,-0.791 11.286,-2.216 -10.839,-4.438 -18.477,-15.07 -18.477,-27.488 z"
     style="opacity:0.1;enable-background:new"
     inkscape:connector-curvature="0" /><path
     id="path401"
     d="m 1360.1784,107.98399 c 0,2.964 -2.428,5.39 -5.396,5.39 h -57.552 c -2.967,0 -5.396,-2.425 -5.396,-5.39 V 74.755985 c 0,-2.964 2.427,-5.39 5.396,-5.39 h 57.552 c 2.967,0 5.396,2.425 5.396,5.39 z"
     style="fill:#e02424"
     inkscape:connector-curvature="0" /><path
     id="path403"
     d="M 1325.4984,107.98399 V 74.755985 c 0,-2.964 2.428,-5.39 5.396,-5.39 h -33.664 c -2.967,0 -5.396,2.425 -5.396,5.39 v 33.228005 c 0,2.964 2.427,5.39 5.396,5.39 h 33.663 c -2.967,0 -5.395,-2.425 -5.395,-5.39 z"
     style="opacity:0.1;enable-background:new"
     inkscape:connector-curvature="0" /><path
     id="path405"
     d="m 1303.8154,138.78999 c 0,2.964 -2.428,5.389 -5.396,5.389 h -21.99 c -2.967,0 -5.396,-2.424 -5.396,-5.389 V 43.951985 c 0,-2.963 2.428,-5.389 5.396,-5.389 h 21.99 c 2.967,0 5.396,2.425 5.396,5.389 z"
     style="fill:#0853a4"
     inkscape:connector-curvature="0" /><path
     id="path407"
     d="m 1238.1474,-104.75101 c -10.896,-54.651 -59.211,-95.846 -117.171,-95.846 -57.962,0 -106.277,41.195 -117.172,95.846 z"
     style="fill:#e02424"
     inkscape:connector-curvature="0" /><path
     id="path409"
     d="m 1210.0154,-104.75101 c -10.396,-39.375 -46.368,-68.497 -89.039,-68.497 -42.671,0 -78.645,29.122 -89.04,68.497 z"
     style="fill:#d8b26b"
     inkscape:connector-curvature="0" /><path
     id="path411"
     d="m 1181.8964,-104.75101 c -9.441,-24.403 -33.18,-41.767 -60.921,-41.767 -27.741,0 -51.48,17.363 -60.922,41.767 z"
     style="fill:#0853a4"
     inkscape:connector-curvature="0" /><rect
     id="rect413"
     height="127.478"
     width="324.086"
     style="fill:#d8b26b"
     y="157.80298"
     x="958.93445" /><path
     id="path415"
     d="m 969.72645,205.78699 c -5.935,0 -10.792,-4.85 -10.792,-10.778 v 90.272 h 21.112 v -79.494 z"
     style="opacity:0.1;enable-background:new"
     inkscape:connector-curvature="0" /><path
     id="path417"
     d="m 947.53045,278.65199 c -2.968,0 -5.396,2.424 -5.396,5.389 v 10.97 c 0,2.964 2.428,5.39 5.396,5.39 h 346.88895 c 2.967,0 5.396,-2.425 5.396,-5.39 v -10.97 c 0,-2.964 -2.428,-5.389 -5.396,-5.389 z"
     style="fill:#a86d33"
     inkscape:connector-curvature="0" /><g
     id="g423"
     transform="translate(897.91045,-200.59701)">
	<path
   id="path419"
   d="m 61.024,358.4 v 37.205 c 0,5.929 4.857,10.778 10.792,10.778 h 302.498 c 5.935,0 10.792,-4.85 10.792,-10.778 V 358.4 Z"
   style="fill:#d1943d"
   inkscape:connector-curvature="0" />
	<path
   id="path421"
   d="M 385.105,206.89 V 95.461 c 0,-5.929 -4.856,-10.779 -10.792,-10.779 H 71.816 c -5.935,0 -10.792,4.851 -10.792,10.779 V 206.89 Z"
   style="fill:#d1943d"
   inkscape:connector-curvature="0" />
</g><path
     id="path425"
     d="m 991.25145,-115.91501 h -21.525 c -5.935,0 -10.792,4.851 -10.792,10.779 V 6.2929852 h 21.525 V -105.13601 c 0,-5.928 4.857,-10.779 10.792,-10.779 z"
     style="opacity:0.1;enable-background:new"
     inkscape:connector-curvature="0" /><path
     id="path427"
     d="m 1008.0644,-29.388015 c -0.864,0 -1.621,-0.584 -1.839,-1.42 -1.685,-6.432 -6.72695,-11.509 -13.15595,-13.248 -0.829,-0.225 -1.405,-0.978 -1.405,-1.836 v -30.998 c 0,-0.859 0.577,-1.612 1.406,-1.837 6.24,-1.685 11.23395,-6.579 13.03395,-12.769 0.236,-0.811 0.98,-1.371 1.826,-1.371 h 225.349 c 0.846,0 1.59,0.559 1.826,1.371 1.881,6.467 7.134,11.428 13.709,12.944 0.863,0.199 1.475,0.968 1.475,1.853 v 30.616 c 0,0.886 -0.612,1.654 -1.475,1.854 -6.772,1.561 -12.072,6.704 -13.831,13.421 -0.218,0.837 -0.975,1.42 -1.839,1.42 h -225.08 z"
     style="fill:#0853a4"
     inkscape:connector-curvature="0" /><path
     id="path429"
     d="m 969.72645,177.05699 c -5.935,0 -10.792,-4.851 -10.792,-10.779 V 6.3099852 c 0,-5.92900002 4.857,-10.778 10.792,-10.778 h 302.49795 c 5.935,0 10.792,4.84999998 10.792,10.778 V 166.27799 c 0,5.929 -4.856,10.779 -10.792,10.779 z"
     style="fill:#d8b26b"
     inkscape:connector-curvature="0" /><rect
     id="rect431"
     height="135.429"
     width="269.23901"
     style="fill:#ffffff"
     y="18.580978"
     x="986.35248" /><rect
     id="rect433"
     height="135.429"
     width="17.434999"
     style="opacity:0.1;enable-background:new"
     y="18.580978"
     x="986.35248" /><path
     id="path435"
     d="m 1200.8264,295.01199 c 0,2.964 -2.428,5.39 -5.396,5.39 h -148.91 c -2.968,0 -5.396,-2.425 -5.396,-5.39 v -47.529 c 0,-2.963 2.428,-5.389 5.396,-5.389 h 148.91 c 2.967,0 5.396,2.425 5.396,5.389 z"
     style="fill:#5b330a"
     inkscape:connector-curvature="0" /><path
     id="path437"
     d="m 1063.2774,295.01199 v -47.529 c 0,-2.963 2.428,-5.389 5.396,-5.389 h -22.152 c -2.968,0 -5.396,2.425 -5.396,5.389 v 47.528 c 0,2.964 2.428,5.39 5.396,5.39 h 22.152 c -2.968,0 -5.396,-2.426 -5.396,-5.389 z"
     style="opacity:0.1;enable-background:new"
     inkscape:connector-curvature="0" /><path
     id="path439"
     d="m 1218.6964,306.01299 c 0,2.964 -2.428,5.39 -5.396,5.39 h -41.017 c -2.967,0 -5.396,-2.425 -5.396,-5.39 v -12.324 c 0,-2.964 2.428,-5.39 5.396,-5.39 h 41.017 c 2.967,0 5.396,2.425 5.396,5.39 z"
     style="fill:#febe2d"
     inkscape:connector-curvature="0" /><path
     id="path441"
     d="m 1136.4084,286.15999 c 0,2.964 -2.428,5.39 -5.396,5.39 h -41.017 c -2.968,0 -5.396,-2.425 -5.396,-5.39 v -12.324 c 0,-2.965 2.428,-5.39 5.396,-5.39 h 41.017 c 2.967,0 5.396,2.424 5.396,5.39 z"
     style="fill:#fee12d"
     inkscape:connector-curvature="0" /><ellipse
     id="ellipse443"
     ry="12.654"
     rx="12.675"
     cy="-60.999008"
     cx="1031.6904"
     style="fill:#ffffff" /><ellipse
     id="ellipse445"
     ry="12.654"
     rx="12.675"
     cy="-60.999008"
     cx="1091.2085"
     style="fill:#fee12d" /><ellipse
     id="ellipse447"
     ry="12.654"
     rx="12.675"
     cy="-60.999008"
     cx="1150.7365"
     style="fill:#ffffff" /><ellipse
     id="ellipse449"
     ry="12.654"
     rx="12.675"
     cy="-60.999008"
     cx="1210.2634"
     style="fill:#fee12d" /><ellipse
     id="ellipse451"
     ry="14.303"
     rx="14.33"
     cy="240.99799"
     cx="1243.3345"
     style="fill:#0853a4" /><g
     id="g457"
     transform="translate(897.91045,-200.59701)">
	<ellipse
   id="ellipse453"
   ry="14.303"
   rx="14.33"
   cy="441.595"
   cx="102.914"
   style="fill:#e02424" />
	<path
   id="path455"
   d="m 146.053,308.894 c -0.564,0 -1.115,-0.112 -1.634,-0.329 l -9.895,-4.145 c -0.195,-0.085 -0.402,-0.126 -0.61,-0.126 -0.208,0 -0.417,0.042 -0.612,0.126 l -9.893,4.145 c -0.521,0.217 -1.067,0.329 -1.634,0.329 -0.899,0 -1.758,-0.278 -2.483,-0.804 -1.188,-0.86 -1.849,-2.298 -1.728,-3.753 l 0.903,-10.651 c 0.039,-0.425 -0.099,-0.844 -0.379,-1.164 l -7.015,-8.089 c -0.957,-1.108 -1.273,-2.655 -0.821,-4.045 0.456,-1.391 1.626,-2.463 3.055,-2.795 l 10.45,-2.438 c 0.414,-0.095 0.77,-0.354 0.99,-0.717 l 5.554,-9.146 c 0.761,-1.251 2.144,-2.028 3.615,-2.028 1.469,0 2.853,0.777 3.613,2.028 l 5.555,9.146 c 0.216,0.363 0.576,0.622 0.987,0.717 l 10.452,2.438 c 1.429,0.331 2.598,1.404 3.056,2.796 0.453,1.389 0.136,2.937 -0.823,4.044 l -7.015,8.089 c -0.276,0.321 -0.416,0.739 -0.376,1.164 l 0.898,10.651 c 0.127,1.456 -0.536,2.892 -1.724,3.753 -0.73,0.526 -1.585,0.804 -2.486,0.804 z"
   style="fill:#e02424"
   inkscape:connector-curvature="0" />
</g><path
     id="path459"
     d="m 1133.0834,108.29699 c -0.564,0 -1.115,-0.112 -1.634,-0.329 l -9.894,-4.145 c -0.196,-0.085 -0.402,-0.126 -0.611,-0.126 -0.208,0 -0.417,0.042 -0.612,0.126 l -9.893,4.145 c -0.519,0.217 -1.067,0.329 -1.634,0.329 -0.899,0 -1.758,-0.278 -2.483,-0.804 -1.188,-0.86 -1.849,-2.298 -1.728,-3.753 l 0.903,-10.651005 c 0.038,-0.425 -0.099,-0.844 -0.379,-1.164 l -7.015,-8.089 c -0.958,-1.108 -1.272,-2.655 -0.82,-4.045 0.456,-1.391 1.626,-2.463 3.055,-2.795 l 10.449,-2.438 c 0.414,-0.095 0.77,-0.354 0.99,-0.717 l 5.553,-9.146 c 0.761,-1.251 2.145,-2.028 3.615,-2.028 1.469,0 2.852,0.777 3.614,2.028 l 5.554,9.146 c 0.217,0.363 0.576,0.622 0.988,0.717 l 10.451,2.438 c 1.429,0.331 2.599,1.404 3.056,2.796 0.455,1.389 0.137,2.937 -0.823,4.044 l -7.014,8.089 c -0.276,0.321 -0.416,0.739 -0.377,1.164 l 0.898,10.651005 c 0.127,1.456 -0.536,2.892 -1.723,3.753 -0.728,0.526 -1.584,0.804 -2.486,0.804 z"
     style="fill:#0853a4"
     inkscape:connector-curvature="0" /><path
     id="path461"
     d="m 1224.3994,108.29699 c -0.564,0 -1.115,-0.112 -1.633,-0.329 l -9.894,-4.145 c -0.196,-0.085 -0.402,-0.126 -0.611,-0.126 -0.208,0 -0.418,0.042 -0.612,0.126 l -9.893,4.145 c -0.52,0.217 -1.067,0.329 -1.634,0.329 -0.899,0 -1.759,-0.278 -2.483,-0.804 -1.188,-0.86 -1.849,-2.298 -1.728,-3.753 l 0.903,-10.651005 c 0.038,-0.425 -0.099,-0.844 -0.379,-1.164 l -7.015,-8.089 c -0.958,-1.108 -1.273,-2.655 -0.821,-4.045 0.457,-1.391 1.626,-2.463 3.055,-2.795 l 10.45,-2.438 c 0.413,-0.095 0.77,-0.354 0.99,-0.717 l 5.554,-9.146 c 0.761,-1.251 2.145,-2.028 3.616,-2.028 1.469,0 2.852,0.777 3.613,2.028 l 5.555,9.146 c 0.216,0.363 0.576,0.622 0.988,0.717 l 10.451,2.438 c 1.429,0.331 2.599,1.404 3.056,2.796 0.455,1.389 0.137,2.937 -0.823,4.044 l -7.014,8.089 c -0.277,0.321 -0.416,0.739 -0.377,1.164 l 0.898,10.651005 c 0.128,1.456 -0.536,2.892 -1.723,3.753 -0.732,0.526 -1.587,0.804 -2.489,0.804 z"
     style="fill:#e02424"
     inkscape:connector-curvature="0" /><path
     id="path463"
     d="m 1108.8504,306.01299 c 0,2.964 -2.428,5.39 -5.396,5.39 h -41.017 c -2.968,0 -5.396,-2.425 -5.396,-5.39 v -12.324 c 0,-2.964 2.428,-5.39 5.396,-5.39 h 41.017 c 2.967,0 5.396,2.425 5.396,5.39 z"
     style="fill:#d8b26b"
     inkscape:connector-curvature="0" /><path
     id="path465"
     d="m 1154.5214,306.01299 c 0,2.964 -2.428,5.39 -5.396,5.39 h -41.016 c -2.967,0 -5.396,-2.425 -5.396,-5.39 v -12.324 c 0,-2.964 2.428,-5.39 5.396,-5.39 h 41.016 c 2.967,0 5.396,2.425 5.396,5.39 z"
     style="fill:#febe2d"
     inkscape:connector-curvature="0" /><path
     id="path467"
     d="M 1257.5714,10.855985 H 986.47045 c -4.328,0 -7.837,3.508 -7.837,7.837 V 152.00299 c 0,4.329 3.509,7.837 7.837,7.837 h 271.10095 c 4.328,0 7.837,-3.508 7.837,-7.837 V 18.692985 c 0,-4.328 -3.509,-7.837 -7.837,-7.837 z m -263.26395,15.673 h 74.51495 V 144.16599 h -74.51495 z m 90.18795,0 h 75.05 V 144.16599 h -75.05 z m 165.239,117.637005 h -74.514 V 26.528985 h 74.515 z"
     style="fill:#a86d33"
     inkscape:connector-curvature="0" /></g><g
   transform="translate(-1810.1934,-349.88066)"
   id="g516"><rect
     x="584.20593"
     y="311.44666"
     style="fill:#d8b26b"
     width="18.48"
     height="132.086"
     id="rect506" /><g
     id="g512"
     transform="translate(-0.95522388,325.73134)"><ellipse
       id="ellipse508"
       ry="29.704"
       rx="29.763"
       cy="135.71864"
       cx="593.71448"
       style="fill:#e02424" /><path
       inkscape:connector-curvature="0"
       id="path510"
       d="m 586.52649,135.71864 c 0,-12.418 7.637,-23.049 18.477,-27.487 -3.482,-1.425 -7.29,-2.217 -11.286,-2.217 -16.437,0 -29.763,13.299 -29.763,29.704 0,16.406 13.326,29.704 29.763,29.704 3.996,0 7.804,-0.791 11.286,-2.216 -10.839,-4.438 -18.477,-15.07 -18.477,-27.488 z"
       style="opacity:0.1;enable-background:new" /></g><path
     style="fill:#e02424"
     d="m 602.68591,311.44667 c 0,2.964 -2.428,5.39 -5.396,5.39 h -57.552 c -2.967,0 -5.396,-2.425 -5.396,-5.39 v -33.228 c 0,-2.964 2.427,-5.39 5.396,-5.39 h 57.552 c 2.967,0 5.396,2.425 5.396,5.39 z"
     id="path514"
     inkscape:connector-curvature="0" /></g><g
   transform="translate(-1933.1244,-487.67149)"
   id="g524"><path
     inkscape:connector-curvature="0"
     id="path518"
     d="m 729.73068,370.01383 c 0,2.964 -2.428,5.39 -5.396,5.39 h -57.552 c -2.967,0 -5.396,-2.425 -5.396,-5.39 v -33.228 c 0,-2.964 2.427,-5.39 5.396,-5.39 h 57.552 c 2.967,0 5.396,2.425 5.396,5.39 z"
     style="fill:#e02424" /><ellipse
     id="ellipse520"
     ry="29.704"
     rx="29.763"
     cy="365.09207"
     cx="725.39978"
     style="fill:#e02424" /><path
     inkscape:connector-curvature="0"
     id="path522"
     d="m 718.21178,365.09207 c 0,-12.418 7.637,-23.049 18.477,-27.487 -3.482,-1.425 -7.29,-2.217 -11.286,-2.217 -16.437,0 -29.763,13.299 -29.763,29.704 0,16.406 13.326,29.704 29.763,29.704 3.996,0 7.804,-0.791 11.286,-2.216 -10.839,-4.438 -18.477,-15.07 -18.477,-27.488 z"
     style="opacity:0.1;enable-background:new" /></g><g
   transform="translate(-1937.5716,-594.46456)"
   id="g534"><rect
     x="718.2088"
     y="243.72803"
     style="fill:#d8b26b"
     width="18.48"
     height="132.086"
     id="rect526" /><ellipse
     style="fill:#e02424"
     cx="727.4458"
     cy="231.24103"
     rx="29.763"
     ry="29.704"
     id="ellipse528" /><path
     style="opacity:0.1;enable-background:new"
     d="m 720.25783,231.24103 c 0,-12.418 7.637,-23.049 18.477,-27.487 -3.482,-1.425 -7.29,-2.217 -11.286,-2.217 -16.437,0 -29.763,13.299 -29.763,29.704 0,16.406 13.326,29.704 29.763,29.704 3.996,0 7.804,-0.791 11.286,-2.216 -10.839,-4.438 -18.477,-15.07 -18.477,-27.488 z"
     id="path530"
     inkscape:connector-curvature="0" /><path
     style="fill:#e02424"
     d="m 736.41725,406.96906 c 0,2.964 -2.428,5.39 -5.396,5.39 h -57.552 c -2.967,0 -5.396,-2.425 -5.396,-5.39 v -33.228 c 0,-2.964 2.427,-5.39 5.396,-5.39 h 57.552 c 2.967,0 5.396,2.425 5.396,5.39 z"
     id="path532"
     inkscape:connector-curvature="0" /></g></svg>