<?xml version="1.0" encoding="iso-8859-1"?>
<!-- Generator: Adobe Illustrator 21.0.0, SVG Export Plug-In . SVG Version: 6.00 Build 0)  -->
<svg version="1.1" id="Capa_1" xmlns="http://www.w3.org/2000/svg" xmlns:xlink="http://www.w3.org/1999/xlink" x="0px" y="0px"
	 viewBox="0 0 512 512" style="enable-background:new 0 0 512 512;" xml:space="preserve">
<g>
	<g>
		<path d="M438.154,103.385H73.846C33.127,103.385,0,136.512,0,177.231v157.538c0,40.719,33.127,73.846,73.846,73.846h23.998
			c30.375,0,57.29-18.224,68.568-46.428l20.82-52.065h137.538l20.82,52.065c11.277,28.203,38.191,46.428,68.567,46.428h23.998
			c40.719,0,73.846-33.127,73.846-73.846V177.231C512,136.512,478.873,103.385,438.154,103.385z M137.846,241.247h-14.769v14.769
			c0,8.157-6.613,14.769-14.769,14.769s-14.769-6.613-14.769-14.769v-14.769H78.769c-8.157,0-14.769-6.613-14.769-14.769
			s6.613-14.769,14.769-14.769h14.769v-14.769c0-8.157,6.613-14.769,14.769-14.769s14.769,6.613,14.769,14.769v14.769h14.769
			c8.157,0,14.769,6.613,14.769,14.769S146.003,241.247,137.846,241.247z M226.454,211.708h-9.838
			c-8.156,0-14.769-6.613-14.769-14.769s6.613-14.769,14.769-14.769h9.838c8.157,0,14.769,6.613,14.769,14.769
			S234.61,211.708,226.454,211.708z M295.385,211.708h-9.838c-8.157,0-14.769-6.613-14.769-14.769s6.613-14.769,14.769-14.769h9.838
			c8.156,0,14.769,6.613,14.769,14.769S303.541,211.708,295.385,211.708z M403.2,182.17h0.985c8.157,0,14.769,6.613,14.769,14.769
			s-6.613,14.769-14.769,14.769H403.2c-8.157,0-14.769-6.613-14.769-14.769S395.043,182.17,403.2,182.17z M374.154,241.739
			c-8.157,0-14.769-6.613-14.769-14.769v-0.985c0-8.157,6.613-14.769,14.769-14.769s14.769,6.613,14.769,14.769v0.985
			C388.923,235.126,382.31,241.739,374.154,241.739z M404.185,270.785H403.2c-8.157,0-14.769-6.613-14.769-14.769
			s6.613-14.769,14.769-14.769h0.985c8.157,0,14.769,6.613,14.769,14.769S412.341,270.785,404.185,270.785z M448,226.97
			c0,8.157-6.613,14.769-14.769,14.769s-14.769-6.613-14.769-14.769v-0.985c0-8.157,6.613-14.769,14.769-14.769
			S448,217.828,448,225.985V226.97z"/>
	</g>
</g>
<g>
</g>
<g>
</g>
<g>
</g>
<g>
</g>
<g>
</g>
<g>
</g>
<g>
</g>
<g>
</g>
<g>
</g>
<g>
</g>
<g>
</g>
<g>
</g>
<g>
</g>
<g>
</g>
<g>
</g>
</svg>
