<?xml version="1.0" encoding="iso-8859-1"?>
<!-- Generator: Adobe Illustrator 19.0.0, SVG Export Plug-In . SVG Version: 6.00 Build 0)  -->
<svg version="1.1" id="Layer_1" xmlns="http://www.w3.org/2000/svg" xmlns:xlink="http://www.w3.org/1999/xlink" x="0px" y="0px"
	 viewBox="0 0 512 512" style="enable-background:new 0 0 512 512;" xml:space="preserve">
<circle style="fill:#FFEDB5;" cx="256" cy="256" r="256"/>
<path style="fill:#FEE187;" d="M343.08,145.946L156.455,366.327l142.127,142.127c103.665-17.358,186.211-97.004,207.846-199.156
	L343.08,145.946z"/>
<path style="fill:#915F4E;" d="M393.912,267.75c0,82.482-61.745,139.354-137.912,139.354S118.088,350.232,118.088,267.75
	S179.833,108.408,256,108.408S393.912,185.268,393.912,267.75z"/>
<path style="fill:#5B382F;" d="M256,108.408c-0.191,0-0.381,0.009-0.574,0.009V407.09c0.191,0,0.381,0.014,0.574,0.014
	c76.167,0,137.912-56.872,137.912-139.354S332.167,108.408,256,108.408z"/>
<g>
	<path style="fill:#FFEDB5;" d="M192.19,297.603c0.529,11.64,4.272,53.888,30.644,93.453c2,3,6.689,1.298,6.289-2.284
		c-2.708-24.261-7.923-75.612-5.832-94.306c0.248-2.22-1.674-4.065-3.886-3.758l-24.252,3.353
		C193.396,294.303,192.109,295.831,192.19,297.603z"/>
	<path style="fill:#FFEDB5;" d="M319.81,297.603c-0.529,11.64-4.272,53.888-30.644,93.453c-2,3-6.689,1.298-6.289-2.284
		c2.708-24.261,7.923-75.612,5.832-94.306c-0.248-2.22,1.674-4.065,3.886-3.758l24.252,3.353
		C318.605,294.303,319.891,295.831,319.81,297.603z"/>
</g>
<circle style="fill:#252828;" cx="216.247" cy="203.438" r="8.835"/>
<circle cx="295.753" cy="203.438" r="8.835"/>
<path style="fill:#FFC61B;" d="M214.235,234.281c-24.178,0-43.779,17.687-43.779,39.503c0,21.818,19.601,39.503,43.779,39.503
	c19.597,0,36.185-11.621,41.767-27.641c5.582,16.02,22.169,27.641,41.767,27.641c24.178,0,43.779-17.686,43.779-39.503
	c0-21.818-19.601-39.503-43.779-39.503H214.235z"/>
<path style="fill:#D48B07;" d="M297.767,234.281h-42.341v52.81c0.191-0.481,0.403-0.953,0.574-1.443
	c5.582,16.02,22.169,27.641,41.767,27.641c24.178,0,43.779-17.687,43.779-39.503C341.545,251.968,321.945,234.281,297.767,234.281z"
	/>
<path style="fill:#252828;" d="M244.881,252.742l-11.397-14.66c-5.635-7.249,0.678-16.77,11.121-16.77h22.793
	c10.443,0,16.756,9.521,11.121,16.77l-11.397,14.66C261.923,259.427,250.077,259.427,244.881,252.742z"/>
<path d="M267.397,221.312h-11.969v36.416c4.449,0.157,8.978-1.493,11.693-4.986l11.397-14.66
	C284.153,230.833,277.84,221.312,267.397,221.312z"/>
<g>
</g>
<g>
</g>
<g>
</g>
<g>
</g>
<g>
</g>
<g>
</g>
<g>
</g>
<g>
</g>
<g>
</g>
<g>
</g>
<g>
</g>
<g>
</g>
<g>
</g>
<g>
</g>
<g>
</g>
</svg>
